<?xml version="1.0" standalone="no"?>
<!DOCTYPE svg PUBLIC "-//W3C//DTD SVG 20010904//EN"
 "http://www.w3.org/TR/2001/REC-SVG-20010904/DTD/svg10.dtd">
<svg version="1.0" xmlns="http://www.w3.org/2000/svg"
 width="1024.000000pt" height="1024.000000pt" viewBox="0 0 1024.000000 1024.000000"
 preserveAspectRatio="xMidYMid meet">

<g transform="translate(0.000000,1024.000000) scale(0.100000,-0.100000)"
fill="#000000" stroke="none">
<path d="M240 10236 c0 -2 48 -40 108 -84 59 -44 247 -186 417 -316 435 -332
1225 -933 1520 -1157 1092 -829 1450 -1101 1470 -1120 19 -19 19 -19 -10 -21
-17 -1 -131 -2 -255 -3 l-225 0 -3 -486 -2 -485 -123 -22 c-67 -13 -169 -38
-225 -57 l-103 -35 -1405 0 -1404 0 0 -1025 0 -1026 233 1 c127 0 861 1 1630
0 l1397 0 0 -265 0 -265 -118 0 -117 0 -315 -238 c-322 -242 -567 -428 -860
-652 -148 -113 -492 -373 -1240 -940 -135 -102 -328 -248 -428 -325 l-182
-139 0 -373 c0 -205 3 -373 8 -373 4 0 52 35 107 77 55 42 278 212 495 377
217 165 422 321 455 346 33 26 193 147 355 270 162 123 331 251 375 285 44 34
163 124 265 201 102 77 484 368 850 645 366 278 699 531 741 562 l76 57 201 0
c111 0 202 -1 202 -3 0 -7 -153 -293 -161 -301 -5 -6 -9 14 -9 48 l0 58 -27
-18 c-16 -9 -151 -112 -301 -228 -151 -116 -360 -276 -465 -356 -106 -80 -433
-330 -727 -555 -294 -225 -638 -487 -765 -583 -126 -97 -293 -224 -370 -283
-77 -59 -383 -293 -680 -520 -297 -226 -559 -427 -582 -446 l-43 -34 0 -215 0
-214 1980 0 1980 0 2 1002 3 1002 114 23 c181 38 161 19 253 243 44 107 85
210 91 228 6 17 14 32 19 32 4 0 8 -569 8 -1265 l0 -1265 665 0 665 0 1 933
c0 512 1 1333 2 1822 l2 890 141 3 142 3 11 -68 c21 -119 20 -115 44 -110 12
3 47 9 78 12 53 7 57 6 62 -17 4 -12 7 -522 7 -1133 0 -610 0 -1386 0 -1722
l0 -613 1985 0 1985 0 0 283 0 283 -127 94 c-233 173 -1149 857 -1788 1335
-346 259 -938 702 -1315 984 -377 282 -684 515 -683 519 1 4 37 13 80 20 133
21 393 72 508 99 68 17 154 29 225 32 l115 6 3 372 2 373 1488 2 1487 3 3
1023 2 1022 -1490 0 -1490 0 0 313 0 314 213 161 c116 88 286 217 377 286 91
69 359 272 595 451 237 179 579 437 760 575 182 138 436 330 565 427 308 232
453 345 462 357 9 13 11 736 2 736 -6 0 -167 -121 -614 -460 -162 -123 -452
-343 -645 -489 -192 -146 -471 -358 -620 -471 -148 -113 -317 -241 -375 -285
-58 -43 -150 -113 -205 -155 -133 -102 -608 -460 -770 -582 l-130 -98 -135 1
c-74 1 -166 4 -204 8 l-69 6 339 256 c623 471 847 641 1174 889 426 323 687
521 1010 765 146 110 348 264 450 341 102 77 271 205 375 283 105 79 194 148
200 152 5 5 -804 8 -1870 7 l-1880 -3 -1 -50 c-1 -27 -2 -552 -2 -1166 l-2
-1116 -217 -6 c-120 -4 -227 -8 -238 -9 -20 -3 -20 3 -23 1175 l-2 1177 -665
0 -665 0 0 -1349 0 -1349 -44 -6 c-49 -8 -354 -7 -403 1 l-33 5 -2 1347 -3
1346 -1862 3 c-1025 1 -1863 0 -1863 -2z m6044 -2518 c3 -29 17 -159 31 -288
179 -1671 301 -2434 551 -3438 31 -123 54 -225 52 -226 -14 -13 -624 -126
-678 -126 l-25 0 -53 378 c-83 582 -143 906 -203 1087 -62 186 -224 407 -431
587 l-57 49 -16 -37 c-8 -21 -70 -195 -136 -388 -256 -741 -551 -1555 -821
-2266 -100 -264 -321 -818 -339 -852 -12 -22 -51 -32 -262 -68 -191 -32 -453
-60 -560 -60 l-69 0 55 63 c424 487 932 1382 1525 2692 186 412 239 532 372
853 58 141 69 176 59 188 -20 25 -147 95 -264 147 -372 165 -879 277 -1250
277 -452 0 -788 -145 -922 -397 -61 -114 -79 -278 -48 -428 57 -267 345 -579
703 -759 274 -138 614 -179 767 -93 50 28 53 49 19 118 -48 95 -35 167 40 223
22 17 42 21 99 21 88 0 134 -24 174 -93 23 -39 28 -58 28 -122 0 -105 -28
-159 -113 -217 -194 -132 -567 -129 -985 8 -303 99 -597 277 -807 489 -148
149 -247 310 -296 480 -26 90 -26 264 0 340 49 144 155 285 279 369 125 85
311 156 500 192 161 30 526 38 727 14 458 -52 926 -183 1317 -366 92 -42 104
-46 112 -31 5 9 40 114 79 232 171 520 237 796 302 1265 29 205 24 193 73 200
52 8 355 32 418 34 l46 1 7 -52z m-709 -395 c-4 -31 -9 -62 -12 -70 -4 -11
-180 -13 -1000 -15 l-994 -3 1 -337 0 -338 -75 0 -75 0 0 410 0 410 1081 0
1081 0 -7 -57z m1525 -1734 l0 -1790 -32 3 c-32 3 -33 4 -55 98 -50 208 -48
150 -48 1790 l0 1545 -245 5 -245 5 -7 45 c-3 25 -7 55 -7 68 l-1 22 320 0
320 0 0 -1791z m-3542 -103 c-2 -382 -6 -698 -10 -701 -4 -4 -36 10 -70 32
l-63 39 4 650 c2 357 5 651 7 653 6 6 69 19 102 20 l32 1 -2 -694z m-48 -1036
l45 -18 3 -261 2 -261 350 0 c234 0 350 -3 350 -10 0 -6 -11 -32 -24 -59 l-25
-48 -393 -6 c-216 -3 -396 -3 -399 1 -3 4 -4 161 -1 350 l5 343 21 -7 c11 -4
41 -15 66 -24z m2524 -562 c3 -13 8 -40 11 -60 l6 -38 -83 -1 c-317 -5 -1058
-3 -1058 3 0 4 11 32 24 63 l25 55 535 0 536 0 4 -22z"/>
<path d="M5777 6840 c-4 -14 -25 -104 -47 -200 -51 -217 -76 -306 -150 -533
l-58 -178 60 -37 c33 -20 115 -74 181 -119 98 -65 123 -78 125 -64 2 10 -6 97
-17 193 -11 97 -32 322 -46 500 -31 401 -39 472 -48 438z"/>
<path d="M0 8926 l0 -354 303 -228 c166 -125 502 -379 747 -564 245 -185 576
-434 735 -554 160 -121 299 -227 311 -238 19 -17 44 -18 479 -16 l459 3 -468
355 c-911 692 -2085 1586 -2404 1832 -84 65 -155 118 -158 118 -2 0 -4 -159
-4 -354z"/>
<path d="M0 7560 l0 -590 803 0 c632 1 799 3 787 13 -28 22 -163 122 -380 282
-118 87 -255 189 -305 225 -600 443 -896 660 -900 660 -3 0 -5 -265 -5 -590z"/>
<path d="M10025 7968 c-110 -83 -453 -342 -763 -575 l-562 -423 770 0 770 0 0
575 c0 316 -3 575 -7 574 -5 0 -98 -68 -208 -151z"/>
<path d="M778 3863 l-778 -3 0 -585 0 -584 683 511 c826 619 867 650 873 660
3 4 4 7 2 6 -2 -2 -353 -4 -780 -5z"/>
<path d="M7346 3861 c5 -5 221 -168 479 -362 259 -194 794 -596 1190 -894 396
-298 832 -626 968 -728 137 -103 251 -187 253 -187 2 0 4 155 4 344 l0 344
-112 84 c-62 46 -510 381 -995 746 l-883 662 -457 0 c-267 0 -453 -4 -447 -9z"/>
<path d="M8650 3866 c0 -3 64 -52 143 -109 259 -189 528 -388 862 -635 397
-295 572 -422 579 -422 3 0 6 260 6 579 l0 578 -52 7 c-59 6 -1538 9 -1538 2z"/>
</g>
</svg>
