<?xml version="1.0" encoding="UTF-8"?>
<svg version="1.1" xmlns="http://www.w3.org/2000/svg" width="1024" height="1024">
<path d="M0 0 C337.92 0 675.84 0 1024 0 C1024 337.92 1024 675.84 1024 1024 C686.08 1024 348.16 1024 0 1024 C0 686.08 0 348.16 0 0 Z " fill="#282E6D" transform="translate(0,0)"/>
<path d="M0 0 C0 289.08 0 578.16 0 876 C-6.96401877 871.56835169 -13.43062407 867.29863245 -19.8125 862.1875 C-25.14580506 857.97617584 -30.49994273 853.84181603 -36.0625 849.9375 C-42.03431507 845.74179258 -47.82900668 841.34100744 -53.61132812 836.88867188 C-58.22004152 833.34574947 -62.86532945 829.86220953 -67.5625 826.4375 C-74.75236935 821.19536245 -81.87362704 815.86557346 -88.98388672 810.51611328 C-92.32003599 808.00733549 -95.66015947 805.50386041 -99 803 C-102.96683679 800.02607916 -106.93293728 797.05121533 -110.89453125 794.0703125 C-117.96242411 788.75546924 -125.05754212 783.48133096 -132.1875 778.25 C-139.94102546 772.55991277 -147.5930199 766.74567381 -155.2265625 760.89599609 C-160.81508094 756.62710377 -166.4652457 752.46250359 -172.1875 748.375 C-179.01242271 743.49984028 -185.64726322 738.42278648 -192.23974609 733.23876953 C-198.24678348 728.53550404 -204.39307445 724.05407716 -210.59716797 719.61547852 C-216.07313791 715.69129352 -221.42877266 711.64232147 -226.75 707.51171875 C-236.26743077 700.13103303 -245.98151748 693.0044292 -255.6875 685.875 C-262.05591649 681.19714546 -268.34877403 676.44299589 -274.59375 671.6015625 C-278.67952867 668.45884426 -282.84261764 665.42194147 -287 662.375 C-293.89076221 657.3232515 -300.71549529 652.19352584 -307.5 647 C-314.88346541 641.34864249 -322.32587444 635.78940102 -329.82714844 630.2956543 C-335.85492293 625.87022344 -341.81114924 621.35639771 -347.75 616.8125 C-354.31225655 611.79188134 -360.90392503 606.82319363 -367.58398438 601.96044922 C-373.03518015 597.98976924 -378.42833161 593.94379615 -383.81176758 589.88183594 C-384.76345825 589.16495605 -384.76345825 589.16495605 -385.734375 588.43359375 C-386.29350586 588.01134521 -386.85263672 587.58909668 -387.42871094 587.15405273 C-388.92077877 586.05818501 -390.45965208 585.02689861 -392 584 C-392 583.34 -392 582.68 -392 582 C-391.05084717 581.84966309 -390.10169434 581.69932617 -389.1237793 581.54443359 C-369.94908198 578.49307324 -350.9389606 575.19082352 -332.04248047 570.68261719 C-331.03846191 570.45735352 -330.03444336 570.23208984 -329 570 C-327.96371554 569.75261518 -327.96371554 569.75261518 -326.90649605 569.5002327 C-320.48519489 568.06939155 -314.43750921 567.7551789 -307.875 567.875 C-306.91851563 567.88402344 -305.96203125 567.89304687 -304.9765625 567.90234375 C-302.65076475 567.92560173 -300.32552706 567.95827787 -298 568 C-298.00759441 567.27991821 -298.01518881 566.55983642 -298.02301335 565.81793398 C-298.47093443 523.10498413 -298.81390924 480.39229056 -299.02130659 437.67746123 C-299.04631962 432.54449169 -299.07220617 427.4115269 -299.09863281 422.27856445 C-299.10387902 421.25671824 -299.10912523 420.23487203 -299.11453041 419.18206079 C-299.20147126 402.65331158 -299.359111 386.12595879 -299.54305592 369.598037 C-299.73033362 352.62865554 -299.84122612 335.66000346 -299.8817699 318.68963104 C-299.90916507 308.22370342 -299.99554741 297.76172264 -300.15832934 287.29701079 C-300.26436098 280.11300008 -300.29593659 272.93101794 -300.27002755 265.74628227 C-300.25725716 261.60410188 -300.27627122 257.46879326 -300.3841095 253.32784843 C-300.98026342 229.24804518 -300.98026342 229.24804518 -296.0812521 222.2650311 C-291.50497291 217.63429648 -286.34260368 214.46510795 -280.60484838 211.46637261 C-276.21015165 208.99242328 -272.40156831 205.79991997 -268.5 202.625 C-267.00883564 201.45536284 -265.5156632 200.28827616 -264.01953125 199.125 C-263.32682129 198.58488281 -262.63411133 198.04476562 -261.92041016 197.48828125 C-258.43260741 194.78530063 -254.89416676 192.1513449 -251.35546875 189.515625 C-246.87707308 186.17048616 -242.44266062 182.76734351 -238 179.375 C-231.02403443 174.05079476 -224.02716575 168.75643705 -217 163.5 C-209.15758353 157.63369263 -201.35842752 151.71280306 -193.57421875 145.76953125 C-187.77388021 141.34363955 -181.9494973 136.95194386 -176.10546875 132.58398438 C-169.53734508 127.66784332 -163.01809351 122.68800966 -156.49609375 117.7109375 C-151.11083792 113.60300443 -145.70725802 109.52266404 -140.28125 105.46875 C-135.66612776 102.00740832 -131.08652975 98.49906802 -126.5 95 C-120.11409024 90.12818321 -113.71576503 85.27614629 -107.28125 80.46875 C-102.66612776 77.00740832 -98.08652975 73.49906802 -93.5 70 C-87.11409024 65.12818321 -80.71576503 60.27614629 -74.28125 55.46875 C-69.66612726 52.00740795 -65.08656595 48.49902144 -60.5 45 C-53.02530128 39.29863708 -45.53270703 33.62455445 -38 28 C-30.30244204 22.24831594 -22.60870934 16.49399854 -15 10.625 C-7.49137931 4.83477011 -7.49137931 4.83477011 -4.25 2.375 C-3.32960938 1.67503906 -3.32960938 1.67503906 -2.390625 0.9609375 C-1 0 -1 0 0 0 Z " fill="#CF232B" transform="translate(1024,91)"/>
<path d="M0 0 C107.58 0 215.16 0 326 0 C326 24.75 326 49.5 326 75 C354.71 75 383.42 75 413 75 C410.54602107 81.13494732 407.53951881 86.88854182 404.5 92.75 C403.90574219 93.91144531 403.31148438 95.07289063 402.69921875 96.26953125 C401.84263672 97.92275391 401.84263672 97.92275391 400.96875 99.609375 C400.18661133 101.1248291 400.18661133 101.1248291 399.38867188 102.67089844 C398 105 398 105 396 106 C396 102.37 396 98.74 396 95 C385.66578983 102.71936291 375.38536762 110.50473687 365.14990234 118.35449219 C362.99514991 120.0037122 360.83614692 121.6472041 358.67578125 123.2890625 C351.75893097 128.55091282 344.88988556 133.85619483 338.125 139.3125 C333.25687788 143.23620141 328.31946494 146.99982096 323.234375 150.640625 C315.98148214 155.88356585 308.93042938 161.40977768 301.82128906 166.84472656 C298.11604415 169.6752823 294.40579339 172.49923486 290.69555664 175.32324219 C284.18017765 180.2825072 277.66849732 185.24586712 271.1875 190.25 C265.80510629 194.39994392 260.37160802 198.47825026 254.92919922 202.54882812 C249.80479521 206.38569959 244.72292413 210.27462295 239.65625 214.1875 C235.05938899 217.73156518 230.43326445 221.23720383 225.8125 224.75 C219.15472851 229.8130637 212.52687132 234.91076967 205.9375 240.0625 C198.8545127 245.59797691 191.68295688 251.00580417 184.47827148 256.3815918 C177.99904898 261.22572303 171.60259234 266.16851296 165.22875977 271.15014648 C160.22492985 275.05797893 155.17690003 278.89368683 150.0859375 282.6875 C146.39276262 285.45504371 142.72633965 288.25629834 139.0625 291.0625 C132.63144913 295.98766943 126.19406006 300.90436085 119.75 305.8125 C118.87480713 306.47918701 117.99961426 307.14587402 117.09790039 307.83276367 C112.5501784 311.29676613 108.00181352 314.7599231 103.453125 318.22265625 C95.02884057 324.63680448 86.61069477 331.05803577 78.22265625 337.51953125 C68.7957265 344.77900943 59.34750179 352.00790976 49.8125 359.125 C44.36534845 363.19352701 38.98880903 367.33773333 33.65966797 371.55932617 C27.23742852 376.63204339 20.71424613 381.57208086 14.19458008 386.51855469 C13.33501709 387.17114258 12.4754541 387.82373047 11.58984375 388.49609375 C10.38110596 389.41237549 10.38110596 389.41237549 9.14794922 390.34716797 C7.40598262 391.68759919 5.69914049 393.07359071 4.00390625 394.47265625 C2 396 2 396 0 396 C0 265.32 0 134.64 0 0 Z " fill="#FCFCFC" transform="translate(0,584)"/>
<path d="M0 0 C27.46601414 0 27.46601414 0 37.84375 10.140625 C41.68657481 13.76518881 45.72796262 16.90250919 50 20 C55.81224188 24.31706371 61.54376968 28.73150111 67.25 33.1875 C73.00461246 37.68081927 78.78891013 42.12294685 84.64453125 46.484375 C89.12292593 49.8295131 93.55739651 53.2325833 98 56.625 C105.03493205 61.99584925 112.09617818 67.32886179 119.1875 72.625 C126.28706945 77.92870219 133.30068023 83.33037647 140.27539062 88.796875 C145.67251126 93.00995772 151.15802384 97.08766639 156.6875 101.125 C163.02289221 105.75133941 169.20553439 110.51063706 175.29321289 115.45703125 C181.09097798 120.13808051 187.08485096 124.53541418 193.09814453 128.93408203 C198.60351054 132.9627512 204.03715251 137.06331768 209.4296875 141.2421875 C214.097397 144.85740114 218.80139272 148.42510749 223.5 152 C229.2830155 156.40110672 235.06029368 160.808695 240.8125 165.25 C245.42997412 168.80967439 250.08117487 172.32073693 254.75 175.8125 C262.42521404 181.55283245 270.0395371 187.37016218 277.64746094 193.19921875 C288.40294734 201.432144 299.17081999 209.64805655 310.01953125 217.7578125 C315.13873591 221.60895729 320.21838857 225.51181598 325.3046875 229.40625 C330.3865154 233.29705826 335.47302234 237.18170406 340.5625 241.0625 C341.4484082 241.73804932 342.33431641 242.41359863 343.24707031 243.10961914 C348.70666313 247.2676571 354.18826493 251.39459247 359.6875 255.5 C372.71323575 265.23877656 372.71323575 265.23877656 377 269 C377 269.33 377 269.66 377 270 C360.17 270 343.34 270 326 270 C326 302.34 326 334.68 326 368 C318.41 369.32 310.82 370.64 303 372 C292.81203524 374.95735111 292.81203524 374.95735111 283 379 C281.44700052 379.09349495 279.88999957 379.12373563 278.33418846 379.12304783 C277.34409405 379.1250387 276.35399963 379.12702957 275.33390236 379.12908077 C274.23890104 379.12616811 273.14389973 379.12325544 272.01571655 379.12025452 C270.8611647 379.12111053 269.70661285 379.12196655 268.51707458 379.12284851 C265.29626977 379.12422025 262.0755047 379.12106677 258.85470459 379.11607273 C255.33422082 379.11171997 251.81373867 379.11316642 248.29325294 379.11389065 C241.4529156 379.1144233 234.61259134 379.10979635 227.77225737 379.10338932 C219.86355113 379.09620266 211.9548528 379.0953953 204.04614258 379.09460449 C183.15575964 379.08934944 162.26537962 379.0753884 141.375 379.0625 C94.72125 379.041875 48.0675 379.02125 0 379 C0 253.93 0 128.86 0 0 Z " fill="#FCFBFC" transform="translate(0,0)"/>
<path d="M0 0 C98.34 0 196.68 0 298 0 C298 126.39 298 252.78 298 383 C291.03598123 378.56835169 284.56937593 374.29863245 278.1875 369.1875 C272.85419494 364.97617584 267.50005727 360.84181603 261.9375 356.9375 C255.96568493 352.74179258 250.17099332 348.34100744 244.38867188 343.88867188 C239.77995848 340.34574947 235.13467055 336.86220953 230.4375 333.4375 C223.24763065 328.19536245 216.12637296 322.86557346 209.01611328 317.51611328 C205.67996401 315.00733549 202.33984053 312.50386041 199 310 C195.03316321 307.02607916 191.06706272 304.05121533 187.10546875 301.0703125 C180.03757589 295.75546924 172.94245788 290.48133096 165.8125 285.25 C158.05897454 279.55991277 150.4069801 273.74567381 142.7734375 267.89599609 C137.18491906 263.62710377 131.5347543 259.46250359 125.8125 255.375 C118.98757729 250.49984028 112.35273678 245.42278648 105.76025391 240.23876953 C99.75321652 235.53550404 93.60692555 231.05407716 87.40283203 226.61547852 C81.92686209 222.69129352 76.57122734 218.64232147 71.25 214.51171875 C61.73256923 207.13103303 52.01848252 200.0044292 42.3125 192.875 C35.94408351 188.19714546 29.65122597 183.44299589 23.40625 178.6015625 C19.32047133 175.45884426 15.15738236 172.42194147 11 169.375 C4.10923779 164.3232515 -2.71549529 159.19352584 -9.5 154 C-16.88346541 148.34864249 -24.32587444 142.78940102 -31.82714844 137.2956543 C-37.85492293 132.87022344 -43.81114924 128.35639771 -49.75 123.8125 C-56.31225655 118.79188134 -62.90392503 113.82319363 -69.58398438 108.96044922 C-75.03518015 104.98976924 -80.42833161 100.94379615 -85.81176758 96.88183594 C-86.44622803 96.40391602 -87.08068848 95.92599609 -87.734375 95.43359375 C-88.29350586 95.01134521 -88.85263672 94.58909668 -89.42871094 94.15405273 C-90.92077877 93.05818501 -92.45965208 92.02689861 -94 91 C-94 90.34 -94 89.68 -94 89 C-93.05084717 88.84966309 -92.10169434 88.69932617 -91.1237793 88.54443359 C-71.94908198 85.49307324 -52.9389606 82.19082352 -34.04248047 77.68261719 C-21.41509156 74.84951019 -14.05373961 75 0 75 C0 50.25 0 25.5 0 0 Z " fill="#FCFBFB" transform="translate(726,584)"/>
<path d="M0 0 C39.93 0 79.86 0 121 0 C124 15 124 15 124 18 C124.65226563 17.855625 125.30453125 17.71125 125.9765625 17.5625 C126.85054687 17.376875 127.72453125 17.19125 128.625 17 C129.48351562 16.814375 130.34203125 16.62875 131.2265625 16.4375 C134 16 134 16 140 16 C140 131.17 140 246.34 140 365 C64.43 365 -11.14 365 -89 365 C-89 298.67 -89 232.34 -89 164 C-79.1 162.02 -79.1 162.02 -69 160 C-61.49989768 157.95525689 -61.49989768 157.95525689 -59.38825989 155.01834106 C-59.10133774 154.2647934 -58.81441559 153.51124573 -58.51879883 152.73486328 C-58.175168 151.87611603 -57.83153717 151.01736877 -57.47749329 150.13259888 C-57.14074081 149.20454437 -56.80398834 148.27648987 -56.45703125 147.3203125 C-56.08068039 146.35656708 -55.70432953 145.39282166 -55.3165741 144.39987183 C-54.12053024 141.31819229 -52.96619897 138.22274804 -51.8125 135.125 C-51.02679993 133.07968553 -50.23841377 131.03540077 -49.44726562 128.9921875 C-46.71971899 121.92110965 -44.05324308 114.82769521 -41.40771484 107.72558594 C-40.96766113 106.55543945 -40.52760742 105.38529297 -40.07421875 104.1796875 C-39.71287842 103.20499512 -39.35153809 102.23030273 -38.97924805 101.22607422 C-38 99 -38 99 -36 97 C-35.38773219 95.23194699 -34.84830421 93.43847022 -34.34375 91.63671875 C-31.8060656 83.09670585 -28.66210925 74.80773386 -25.50927734 66.47875977 C-24.49839187 63.80825173 -23.49284777 61.13578132 -22.48828125 58.46289062 C-19.66214549 50.95618454 -16.81393281 43.46473114 -13.80126953 36.03051758 C-12.24500103 32.08673784 -10.9031493 28.06683193 -9.55273438 24.04882812 C-6.72713907 15.85697619 -3.32057036 8.0642423 0 0 Z " fill="#CF242B" transform="translate(486,659)"/>
<path d="M0 0 C75.57 0 151.14 0 229 0 C229 76.89 229 153.78 229 233 C219.76 233.33 210.52 233.66 201 234 C196.18177451 234.42358026 191.46590154 234.86119318 186.6875 235.5 C185.10485352 235.69529297 185.10485352 235.69529297 183.49023438 235.89453125 C178.31718475 236.53912774 173.16125477 237.26267789 168 238 C166.68 248.56 165.36 259.12 164 270 C109.88 270 55.76 270 0 270 C0 180.9 0 91.8 0 0 Z " fill="#CF252C" transform="translate(397,0)"/>
<path d="M0 0 C1.53844874 8.29256687 2.50759815 16.5480436 3.20410156 24.95077515 C5.14812051 48.26129811 7.55678309 71.56688736 10.88168335 94.72293091 C11.86244487 101.68114017 12.62246554 108.65133882 13.34375 115.640625 C14.87331891 130.16054144 16.61252769 144.65097113 18.42456055 159.13769531 C18.76813742 161.88598361 19.10820469 164.63466991 19.44506836 167.38378906 C21.44941772 183.7353241 23.6974148 200.00950958 26.52572632 216.24200439 C27.30193282 220.75579926 28.02349479 225.27814875 28.74609375 229.80078125 C29.0258303 231.54243305 29.30577761 233.28405101 29.5859375 235.02563477 C29.72483398 235.88907501 29.86373047 236.75251526 30.00683594 237.64212036 C32.77523631 254.80788979 35.6524314 271.9361113 39 289 C39.23090332 290.19496094 39.46180664 291.38992188 39.69970703 292.62109375 C43.79204643 313.67818705 48.6595148 334.52517028 53.73657227 355.36547852 C54.23454861 357.41031637 54.73251431 359.45515681 55.23046875 361.5 C55.47054153 362.48423447 55.71061432 363.46846893 55.95796204 364.48252869 C57.63634007 371.39920089 59.22274103 378.33199797 60.69804382 385.29492188 C61.35616082 388.35220734 62.09622256 391.28102828 63.11010742 394.2421875 C64 397 64 397 64 401 C58.59661493 402.08569444 53.19295674 403.17001651 47.7890625 404.25317383 C45.95826127 404.62032768 44.12752974 404.98782933 42.296875 405.35571289 C36.19993904 406.58078253 30.10127412 407.79671487 24 409 C23.22366211 409.15342865 22.44732422 409.3068573 21.64746094 409.4649353 C19.49509384 409.88798455 17.34160212 410.30463679 15.1875 410.71875 C13.98480469 410.95142578 12.78210938 411.18410156 11.54296875 411.42382812 C5.72419171 412.37010113 -0.11213294 412.73320602 -6 413 C-8.25217567 406.23722561 -9.01341137 399.3351155 -9.91796875 392.28515625 C-10.09705185 390.92402793 -10.27679483 389.56298628 -10.45715332 388.20202637 C-10.83908558 385.31764917 -11.2188636 382.43300144 -11.59701538 379.54812622 C-15.09479038 352.91882331 -18.8079497 326.36092675 -24 300 C-24.1299939 299.3360321 -24.25998779 298.67206421 -24.3939209 297.98797607 C-31.18502931 263.45358604 -43.78606548 239.40720329 -68.625 214.1875 C-69.15125977 213.64810791 -69.67751953 213.10871582 -70.21972656 212.55297852 C-73.87827845 208.88702756 -77.71885395 205.91700254 -82 203 C-82.10707275 203.65548828 -82.21414551 204.31097656 -82.32446289 204.98632812 C-83.18837005 208.84034689 -84.48707344 212.50394932 -85.80859375 216.21875 C-86.23171089 217.4213018 -86.23171089 217.4213018 -86.66337585 218.64814758 C-87.26951729 220.3698343 -87.87715584 222.09099454 -88.48614502 223.81167603 C-89.77338351 227.44913436 -91.0531237 231.08921534 -92.33319092 234.72920227 C-92.97871005 236.56468479 -93.6245846 238.40004235 -94.27081299 240.23527527 C-96.91668914 247.75153635 -99.531605 255.27794847 -102.125 262.8125 C-102.52340088 263.96766113 -102.92180176 265.12282227 -103.33227539 266.31298828 C-105.20817269 271.76006614 -107.07398307 277.21026296 -108.91636658 282.66877747 C-117.3407992 307.62195118 -126.34034624 332.35801409 -135.3873291 357.09140015 C-138.19659437 364.77839266 -140.97394149 372.4764388 -143.73828125 380.1796875 C-146.83566322 388.8059481 -149.99743005 397.4034225 -153.23828125 405.97662354 C-154.70350542 409.86874264 -156.14723213 413.76886782 -157.59375 417.66796875 C-196.05790686 521.28546962 -196.05790686 521.28546962 -211 555 C-211.30550781 555.72268066 -211.61101562 556.44536133 -211.92578125 557.18994141 C-213 559 -213 559 -215.97265625 560.08984375 C-217.33141531 560.39339814 -218.69544622 560.67380435 -220.0625 560.9375 C-220.82763916 561.09589355 -221.59277832 561.25428711 -222.38110352 561.41748047 C-248.21227448 566.53796966 -274.63552255 570.56697801 -301 570 C-300.236875 569.13375 -299.47375 568.2675 -298.6875 567.375 C-294.12109254 562.04041184 -289.82525193 556.49262095 -285.51953125 550.94775391 C-284.03410483 549.043716 -282.53381311 547.15224681 -281.03125 545.26171875 C-254.07617195 511.04187639 -232.83357283 472.50477186 -212.34375 434.21484375 C-210.30974373 430.41961509 -208.254593 426.63893002 -206.15625 422.87890625 C-191.66642231 396.86406505 -178.64876673 369.95057578 -166 343 C-165.24904053 341.40937744 -165.24904053 341.40937744 -164.48291016 339.78662109 C-155.16649612 320.04997911 -146.17010339 300.17370918 -137.25233459 280.25418091 C-135.407785 276.13469992 -133.55767832 272.01786193 -131.69726562 267.90551758 C-127.05190157 257.63214338 -122.50932872 247.32491786 -118.125 236.9375 C-117.68759995 235.90420563 -117.68759995 235.90420563 -117.24136353 234.85003662 C-107.52986511 212.64697553 -107.52986511 212.64697553 -99 190 C-99.70382812 189.7421875 -100.40765625 189.484375 -101.1328125 189.21875 C-104.25160276 187.89305169 -106.97981177 186.26166067 -109.875 184.5 C-139.30165849 167.22055648 -173.6456534 158.25017488 -206.9921875 152.52001953 C-208.88508922 152.19275649 -210.77610661 151.85419551 -212.6640625 151.49951172 C-225.58894143 149.08109881 -238.38890268 148.71602157 -251.5 148.6875 C-252.31247192 148.68382416 -253.12494385 148.68014832 -253.96203613 148.67636108 C-267.49378035 148.64437074 -280.51275163 149.73358394 -293.625 153.3125 C-294.4305835 153.5297876 -295.23616699 153.7470752 -296.06616211 153.97094727 C-311.34189181 158.21633033 -323.65178783 164.88862008 -335 176 C-335.56589844 176.52980469 -336.13179688 177.05960938 -336.71484375 177.60546875 C-347.72829783 188.9694837 -349.46652189 204.01562615 -349.27734375 219.00390625 C-348.4854684 244.00116549 -333.37925555 263.82808978 -315.91796875 280.4609375 C-305.08110318 290.43291437 -293.07310206 298.2930727 -280 305 C-279.37770508 305.32339355 -278.75541016 305.64678711 -278.11425781 305.97998047 C-268.43546907 310.95175175 -258.53480866 314.32353476 -248 317 C-247.32001953 317.18691406 -246.64003906 317.37382813 -245.93945312 317.56640625 C-239.39459103 319.23085801 -232.98036488 319.38377365 -226.25 319.375 C-225.10144531 319.37483887 -223.95289063 319.37467773 -222.76953125 319.37451172 C-209.36385311 319.26896171 -209.36385311 319.26896171 -198 313 C-198.22851179 309.11529954 -198.87203538 306.2661664 -200.5625 302.75 C-202.70832685 297.98626438 -202.93020805 293.10864258 -202 288 C-199.96682824 284.19796882 -197.31737648 281.8189097 -193.6875 279.5625 C-186.90394007 278.14268513 -180.03171945 278.2976031 -174 282 C-169.17707432 286.38620406 -165.53776208 290.92926608 -164.6640625 297.54296875 C-164.54406586 305.66674107 -166.06135005 312.3056972 -171.1875 318.75 C-190.62741543 334.30193235 -214.99418659 333.9096194 -238.99707031 331.72753906 C-245.11710926 330.94564484 -251.04667661 329.60129764 -257 328 C-258.0204541 327.72623535 -259.0409082 327.4524707 -260.09228516 327.17041016 C-275.0109906 323.06158622 -289.15497211 317.90632265 -303 311 C-303.7616748 310.62198242 -304.52334961 310.24396484 -305.30810547 309.85449219 C-329.18040612 297.89024478 -351.82114091 281.47607922 -368 260 C-368.60199219 259.22527344 -369.20398438 258.45054687 -369.82421875 257.65234375 C-377.17293632 247.76047449 -383.2463625 236.04975207 -386 224 C-386.20238281 223.22914063 -386.40476562 222.45828125 -386.61328125 221.6640625 C-390.30640633 206.1378632 -387.82067266 190.27551012 -379.6875 176.55078125 C-364.63169065 153.79281018 -341.01614012 141.38733895 -314.8125 135.625 C-299.29723578 132.52896786 -283.85715488 131.6198621 -268.0625 131.6875 C-266.72563141 131.69023422 -266.72563141 131.69023422 -265.36175537 131.69302368 C-240.74750047 131.77727208 -217.10869912 135.08049578 -193 140 C-192.1032959 140.18208008 -191.2065918 140.36416016 -190.28271484 140.55175781 C-181.82243844 142.29198898 -173.49676534 144.27855674 -165.27197266 146.9453125 C-162.14416872 147.95352866 -159.00704701 148.92178613 -155.86328125 149.87890625 C-133.88111428 156.63857452 -112.5842074 164.7078963 -92 175 C-91.75894531 173.78570312 -91.51789063 172.57140625 -91.26953125 171.3203125 C-89.86780653 165.02178122 -87.76520162 158.97691746 -85.6875 152.875 C-85.07865967 151.06443115 -85.07865967 151.06443115 -84.45751953 149.21728516 C-82.83639277 144.39935096 -81.20672028 139.58464188 -79.54296875 134.78125 C-66.29949044 96.15812932 -58.22040026 55.63721014 -53.2043457 15.1640625 C-52.98524536 13.39869141 -52.98524536 13.39869141 -52.76171875 11.59765625 C-52.5754895 10.04316772 -52.5754895 10.04316772 -52.38549805 8.45727539 C-52 6 -52 6 -51 4 C-48.90893555 3.51342773 -48.90893555 3.51342773 -46.13671875 3.18359375 C-45.11360596 3.05960205 -44.09049316 2.93561035 -43.03637695 2.80786133 C-41.93124756 2.68564209 -40.82611816 2.56342285 -39.6875 2.4375 C-38.56496826 2.30819092 -37.44243652 2.17888184 -36.28588867 2.0456543 C-24.21759202 0.71080555 -12.14221276 -0.03131941 0 0 Z " fill="#FBFBFC" transform="translate(628,247)"/>
<path d="M0 0 C0 95.04 0 190.08 0 288 C-98.34 288 -196.68 288 -298 288 C-298 267.21 -298 246.42 -298 225 C-291.4 220.05 -284.8 215.1 -278 210 C-271.00428691 204.56953537 -271.00428691 204.56953537 -264.01953125 199.125 C-259.83944009 195.86571515 -255.60641154 192.68184446 -251.35546875 189.515625 C-246.87707308 186.17048616 -242.44266062 182.76734351 -238 179.375 C-231.02403443 174.05079476 -224.02716575 168.75643705 -217 163.5 C-209.15758353 157.63369263 -201.35842752 151.71280306 -193.57421875 145.76953125 C-187.77388021 141.34363955 -181.9494973 136.95194386 -176.10546875 132.58398438 C-169.53734508 127.66784332 -163.01809351 122.68800966 -156.49609375 117.7109375 C-151.11083792 113.60300443 -145.70725802 109.52266404 -140.28125 105.46875 C-135.66612776 102.00740832 -131.08652975 98.49906802 -126.5 95 C-120.11409024 90.12818321 -113.71576503 85.27614629 -107.28125 80.46875 C-102.66612776 77.00740832 -98.08652975 73.49906802 -93.5 70 C-87.11409024 65.12818321 -80.71576503 60.27614629 -74.28125 55.46875 C-69.66612726 52.00740795 -65.08656595 48.49902144 -60.5 45 C-53.02530128 39.29863708 -45.53270703 33.62455445 -38 28 C-30.30244204 22.24831594 -22.60870934 16.49399854 -15 10.625 C-7.49137931 4.83477011 -7.49137931 4.83477011 -4.25 2.375 C-3.32960938 1.67503906 -3.32960938 1.67503906 -2.390625 0.9609375 C-1 0 -1 0 0 0 Z " fill="#FCFBFB" transform="translate(1024,91)"/>
<path d="M0 0 C92.73 0 185.46 0 281 0 C277.85504664 2.35871502 275.56577985 3.61311558 272.04296875 5.0703125 C253.62118266 13.45345799 237.63939396 29.20550483 230 48 C222.61669132 70.24936453 223.58279683 91.46424727 232.9375 112.875 C233.26105469 113.61790283 233.58460938 114.36080566 233.91796875 115.1262207 C236.00592867 119.61440241 238.3634635 122.56682245 242 126 C243.16015625 128 243.16015625 128 244.0625 130 C247.44914259 136.43999655 252.64088215 141.33283975 257.6328125 146.53857422 C259.30730425 148.32848629 260.83852496 150.21616494 262.375 152.125 C277.86363792 169.98204614 303.73681267 185.57893756 326 193 C326 196.96 326 200.92 326 205 C218.42 205 110.84 205 0 205 C0 137.35 0 69.7 0 0 Z " fill="#CF232A" transform="translate(0,379)"/>
<path d="M0 0 C1.15177734 0.03158203 2.30355469 0.06316406 3.49023438 0.09570312 C6.30710565 0.17752096 9.12264974 0.30305302 11.9375 0.4375 C11.9375 7.6975 11.9375 14.9575 11.9375 22.4375 C40.6475 22.4375 69.3575 22.4375 98.9375 22.4375 C96.48352107 28.57244732 93.47701881 34.32604182 90.4375 40.1875 C89.84324219 41.34894531 89.24898438 42.51039063 88.63671875 43.70703125 C87.78013672 45.36025391 87.78013672 45.36025391 86.90625 47.046875 C86.12411133 48.5623291 86.12411133 48.5623291 85.32617188 50.10839844 C83.9375 52.4375 83.9375 52.4375 81.9375 53.4375 C81.9375 49.8075 81.9375 46.1775 81.9375 42.4375 C71.60328983 50.15686291 61.32286762 57.94223687 51.08740234 65.79199219 C48.93264991 67.4412122 46.77364692 69.0847041 44.61328125 70.7265625 C37.69643097 75.98841282 30.82738556 81.29369483 24.0625 86.75 C19.19437788 90.67370141 14.25696494 94.43732096 9.171875 98.078125 C1.91898214 103.32106585 -5.13207062 108.84727768 -12.24121094 114.28222656 C-15.94645585 117.1127823 -19.65670661 119.93673486 -23.36694336 122.76074219 C-29.88232235 127.7200072 -36.39400268 132.68336712 -42.875 137.6875 C-48.25739371 141.83744392 -53.69089198 145.91575026 -59.13330078 149.98632812 C-64.25770479 153.82319959 -69.33957587 157.71212295 -74.40625 161.625 C-79.00311101 165.16906518 -83.62923555 168.67470383 -88.25 172.1875 C-94.90777149 177.2505637 -101.53562868 182.34826967 -108.125 187.5 C-115.2079873 193.03547691 -122.37954312 198.44330417 -129.58422852 203.8190918 C-136.06345102 208.66322303 -142.45990766 213.60601296 -148.83374023 218.58764648 C-153.83757015 222.49547893 -158.88559997 226.33118683 -163.9765625 230.125 C-167.66973738 232.89254371 -171.33616035 235.69379834 -175 238.5 C-181.43105087 243.42516943 -187.86843994 248.34186085 -194.3125 253.25 C-195.18769287 253.91668701 -196.06288574 254.58337402 -196.96459961 255.27026367 C-201.5123216 258.73426613 -206.06068648 262.1974231 -210.609375 265.66015625 C-219.03365943 272.07430448 -227.45180523 278.49553577 -235.83984375 284.95703125 C-245.2667735 292.21650943 -254.71499821 299.44540976 -264.25 306.5625 C-269.69715155 310.63102701 -275.07369097 314.77523333 -280.40283203 318.99682617 C-286.82507148 324.06954339 -293.34825387 329.00958086 -299.86791992 333.95605469 C-300.72748291 334.60864258 -301.5870459 335.26123047 -302.47265625 335.93359375 C-303.68139404 336.84987549 -303.68139404 336.84987549 -304.91455078 337.78466797 C-306.65651738 339.12509919 -308.36335951 340.51109071 -310.05859375 341.91015625 C-312.0625 343.4375 -312.0625 343.4375 -314.0625 343.4375 C-314.41402418 328.7819299 -314.67794866 314.12692249 -314.83968258 299.46798325 C-314.91680235 292.66015878 -315.02177792 285.85496359 -315.1940918 279.04882812 C-315.36046294 272.4742463 -315.44688368 265.90136303 -315.48565865 259.3247757 C-315.51327102 256.82227973 -315.56719924 254.31992487 -315.64845085 251.81859589 C-316.29149977 231.19265985 -316.29149977 231.19265985 -310.80638123 225.29464722 C-307.72905203 222.58926408 -304.44614338 220.44082582 -300.86581707 218.46194744 C-298.34548459 217.0301703 -296.12128482 215.27692396 -293.85546875 213.4765625 C-292.32189778 212.33640628 -290.78674755 211.19837108 -289.25 210.0625 C-282.77223751 205.24165151 -276.35407445 200.3576814 -270 195.375 C-263.03534496 189.91883993 -255.95806136 184.63563096 -248.82055664 179.40820312 C-242.72410372 174.93961208 -236.71809214 170.37158344 -230.74511719 165.73876953 C-225.32779256 161.5492251 -219.87550271 157.404772 -214.43261719 153.24853516 C-211.94592638 151.34842469 -209.46124709 149.4457017 -206.9765625 147.54296875 C-198.49663684 141.05716107 -189.99008887 134.61795887 -181.375 128.3125 C-174.26280574 123.10672056 -167.27349508 117.76260829 -160.33251953 112.33105469 C-155.4108883 108.48009792 -150.44559766 104.6977787 -145.43359375 100.96484375 C-140.86653284 97.55349384 -136.34359697 94.08386495 -131.8125 90.625 C-124.76325376 85.24532854 -117.69225388 79.897118 -110.58984375 74.58789062 C-106.63957472 71.63122287 -102.71677334 68.64238891 -98.8125 65.625 C-93.37413035 61.42354014 -87.88085697 57.30001884 -82.375 53.1875 C-75.86010482 48.31987342 -69.40082905 43.39159851 -63 38.375 C-56.0409564 32.92356952 -48.97017201 27.64389481 -41.83813477 22.42138672 C-30.61812012 14.47155929 -30.61812012 14.47155929 -20.15551758 5.61254883 C-13.69612425 -0.21127727 -8.47414677 -0.44497828 0 0 Z " fill="#CF232A" transform="translate(314.0625,636.5625)"/>
<path d="M0 0 C1.02194458 0.01579102 2.04388916 0.03158203 3.09680176 0.04785156 C5.60564785 0.08889608 8.11299021 0.14632069 10.62109375 0.21875 C10.96982073 11.87545681 11.23574199 23.53090891 11.39827633 35.19178391 C11.4763209 40.60776703 11.58200457 46.02016357 11.75268555 51.43408203 C11.91661192 56.66696132 12.00553824 61.89641061 12.0442524 67.13166046 C12.07180796 69.12070982 12.12562861 71.10958692 12.2070446 73.09716034 C12.80225133 88.24070796 12.80225133 88.24070796 9.14816475 93.22981262 C5.62340361 96.81697931 1.65724157 99.5762428 -2.63997173 102.16009903 C-4.81484755 103.48414797 -6.79396779 105.00518164 -8.78125 106.59375 C-9.95775625 107.47127506 -11.13609325 108.34635192 -12.31640625 109.21875 C-13.66539178 110.22392183 -15.01434932 111.22913123 -16.36328125 112.234375 C-17.03037109 112.73001953 -17.69746094 113.22566406 -18.38476562 113.73632812 C-21.61762536 116.13959996 -24.84275726 118.55314289 -28.06640625 120.96875 C-28.71633545 121.45561279 -29.36626465 121.94247559 -30.03588867 122.4440918 C-36.48833772 127.28595484 -42.89832038 132.18312448 -49.31030273 137.07836914 C-55.39380709 141.71833009 -61.50247367 146.32315349 -67.62890625 150.90625 C-75.82482091 157.03905236 -83.96756965 163.23774225 -92.09082031 169.46630859 C-102.72298846 177.60946939 -113.36898569 185.73432659 -124.09765625 193.75 C-128.71277885 197.21134195 -133.29235036 200.7197156 -137.87890625 204.21875 C-146.22942978 210.58848917 -154.61036202 216.91361227 -163.02734375 223.1953125 C-167.74757737 226.72557126 -172.45388132 230.27186699 -177.13671875 233.8515625 C-185.72951434 240.42010922 -194.33704516 246.95736174 -203.06640625 253.34375 C-210.07821399 258.47627677 -216.969315 263.74311204 -223.81005859 269.10107422 C-229.38727288 273.46483603 -235.02817817 277.73466594 -240.703125 281.97021484 C-245.72878236 285.72322189 -250.70764077 289.53317515 -255.671875 293.3671875 C-261.46940897 297.83697898 -267.30446197 302.2580116 -273.13354492 306.68652344 C-273.99826416 307.34426758 -274.8629834 308.00201172 -275.75390625 308.6796875 C-276.97207031 309.60539551 -276.97207031 309.60539551 -278.21484375 310.54980469 C-279.9627941 311.8978404 -281.67662686 313.2900454 -283.37890625 314.6953125 C-285.37890625 316.21875 -285.37890625 316.21875 -287.37890625 316.21875 C-287.37890625 301.03875 -287.37890625 285.85875 -287.37890625 270.21875 C-313.44890625 270.21875 -339.51890625 270.21875 -366.37890625 270.21875 C-363.17408049 267.01392424 -360.51996018 264.42166175 -356.97265625 261.80078125 C-356.15313477 261.19145752 -355.33361328 260.58213379 -354.48925781 259.9543457 C-353.6278418 259.31972412 -352.76642578 258.68510254 -351.87890625 258.03125 C-350.07114917 256.6881262 -348.26385719 255.34437616 -346.45703125 254 C-345.58240234 253.3503125 -344.70777344 252.700625 -343.80664062 252.03125 C-340.72257348 249.72874452 -337.67270001 247.38674869 -334.62890625 245.03125 C-330.07480364 241.51164532 -325.48871673 238.03970873 -320.87890625 234.59375 C-314.60108244 229.90066409 -308.35848182 225.16317223 -302.12890625 220.40625 C-294.23289476 214.37746053 -286.30058523 208.39955881 -278.34570312 202.44873047 C-273.74922681 199.00686703 -269.17164406 195.54372027 -264.62890625 192.03125 C-257.27175059 186.34744995 -249.82446147 180.78595799 -242.37890625 175.21875 C-232.48594662 167.81969802 -222.600609 160.4170963 -212.828125 152.859375 C-208.48340954 149.51708564 -204.0829413 146.24908856 -199.69140625 142.96875 C-193.11751299 138.05568851 -186.59424336 133.08631305 -180.12890625 128.03125 C-172.60534365 122.14938609 -164.99958822 116.38842964 -157.34228516 110.68212891 C-154.03856549 108.21974446 -150.73920003 105.75156353 -147.44140625 103.28125 C-146.78672363 102.79084229 -146.13204102 102.30043457 -145.45751953 101.79516602 C-139.76539007 97.52363282 -134.112808 93.20135066 -128.46435547 88.87231445 C-122.4672726 84.27852403 -116.43245728 79.73795222 -110.37890625 75.21875 C-103.72035486 70.24691388 -97.09253543 65.23997177 -90.51586914 60.16040039 C-85.49029408 56.28709191 -80.4117946 52.48618822 -75.33007812 48.68701172 C-71.07187382 45.49950604 -66.83851669 42.28262686 -62.62890625 39.03125 C-58.73375498 36.02275196 -54.82168864 33.03969899 -50.87890625 30.09375 C-46.11871472 26.53626644 -41.38436944 22.94641156 -36.66235352 19.33837891 C-34.80613834 17.9248485 -32.94461803 16.51825777 -31.07788086 15.11865234 C-25.41802589 10.87625425 -25.41802589 10.87625425 -20.1328125 6.1875 C-13.57629274 0.17339189 -8.56790303 -0.25164132 0 0 Z " fill="#CF232B" transform="translate(1013.37890625,-0.21875)"/>
<path d="M0 0 C2.60632921 1.27845639 4.93829539 2.5795767 7.2578125 4.328125 C7.87398438 4.79089844 8.49015625 5.25367187 9.125 5.73046875 C9.785 6.23191406 10.445 6.73335938 11.125 7.25 C11.82367188 7.77722656 12.52234375 8.30445312 13.2421875 8.84765625 C19.30207339 13.43554858 25.29680944 18.10611599 31.28564453 22.78613281 C36.78950995 27.08016292 42.35430306 31.2839649 47.95214844 35.4543457 C53.10203708 39.30144273 58.18365994 43.23119182 63.25 47.1875 C69.00090965 51.67792804 74.78187982 56.11672624 80.6328125 60.4765625 C88.80646472 66.58249055 96.89089986 72.80880725 105 79 C105.79229004 79.60489258 106.58458008 80.20978516 107.40087891 80.83300781 C117.6626894 88.66978002 127.91209466 96.52258002 138.12890625 104.41796875 C144.73290004 109.51744824 151.38420775 114.54892509 158.06665039 119.54516602 C162.15243941 122.60352584 166.21224068 125.69100145 170.25 128.8125 C175.79415755 133.09474109 181.39073414 137.30347675 187 141.5 C193.64455336 146.47106455 200.25173353 151.48247102 206.81640625 156.55859375 C210.4113826 159.32752895 214.05057562 162.0365566 217.6875 164.75 C223.45344402 169.05345117 229.14844986 173.43845871 234.8125 177.875 C241.7397858 183.2973283 248.77672239 188.54747897 255.87841797 193.73852539 C262.24547164 198.40747996 268.48933877 203.22045383 274.70507812 208.08837891 C278.9353565 211.40021684 283.19078322 214.66647716 287.5 217.875 C298.34820883 225.96570324 298.34820883 225.96570324 303 230 C303 230.33 303 230.66 303 231 C291.31641156 231.32646238 279.63393241 231.57416574 267.9466877 231.72537041 C262.51765359 231.79799885 257.09177104 231.89624373 251.66455078 232.05615234 C246.41223828 232.20991315 241.1629267 232.29230733 235.908535 232.3282814 C233.91893178 232.35386461 231.9294663 232.40382 229.94116592 232.48022079 C215.57352399 233.00960624 207.48809533 230.11391003 196.73580933 220.44168091 C196.0981451 219.84820484 195.46048088 219.25472878 194.8034935 218.64326859 C192.38614569 216.44068138 189.83576516 214.54187858 187.1875 212.625 C182.64827585 209.24566048 178.14424483 205.82328977 173.64892578 202.38574219 C165.92116219 196.47684894 158.16382869 190.6188625 150.3125 184.875 C143.3615856 179.78831552 136.53968209 174.56002998 129.76220703 169.24511719 C123.70164072 164.50803183 117.53064511 159.93682511 111.32299805 155.39501953 C104.35774531 150.28920435 97.48628212 145.06611338 90.62573242 139.82080078 C85.43652739 135.85408273 80.23254379 131.90935642 75 128 C68.86427206 123.41585348 62.77195485 118.77694031 56.6875 114.125 C49.17847028 108.38548413 41.60514512 102.74480781 33.97583008 97.16650391 C27.62340205 92.50347331 21.39584424 87.69166776 15.22387695 82.79248047 C14.53898193 82.25252441 13.85408691 81.71256836 13.1484375 81.15625 C12.20303101 80.39178558 12.20303101 80.39178558 11.23852539 79.61187744 C9.07272048 77.93757746 9.07272048 77.93757746 6.6570282 76.95358276 C3.8168265 75.59462457 2.06215202 74.39964162 0 72 C-1.29041171 66.5668821 -1.04889891 61.20253824 -0.87890625 55.6640625 C-0.86210638 54.05841649 -0.8493017 52.45272414 -0.84031677 50.84701538 C-0.80605782 46.63388222 -0.71775359 42.42357085 -0.61798096 38.21154785 C-0.52567813 33.90834733 -0.48475939 29.60468774 -0.43945312 25.30078125 C-0.34311701 16.86589679 -0.18965249 8.4333 0 0 Z " fill="#D1252C" transform="translate(0,96)"/>
<path d="M0 0 C11.6315079 -0.37367414 23.26154887 -0.65646396 34.89787579 -0.82899475 C40.30381051 -0.91188314 45.70558872 -1.02391975 51.10913086 -1.20703125 C92.70349017 -2.57976041 92.70349017 -2.57976041 104.83203125 7.6015625 C106.98494682 9.63566049 109.00675607 11.7190108 110.98684692 13.92105103 C114.56482058 17.61596362 118.80268547 20.43120262 123 23.375 C124.57544295 24.52519348 126.14872675 25.67835703 127.71875 26.8359375 C128.45222656 27.37573242 129.18570313 27.91552734 129.94140625 28.47167969 C133.86030246 31.3811069 137.70566152 34.3839824 141.5625 37.375 C145.82351784 40.65270603 150.16554081 43.82049075 154.5 47 C159.878178 50.94512116 165.2291634 54.91241243 170.5 59 C175.60707189 62.95927038 180.78798565 66.80511978 186 70.625 C193.78638951 76.33334987 201.47837727 82.15589959 209.14453125 88.02441406 C215.83907809 93.13954374 222.60318922 98.15258167 229.3984375 103.1328125 C234.85104981 107.13506665 240.21752801 111.22991968 245.5625 115.375 C249.82352043 118.65270803 254.16560676 121.82039656 258.5 125 C266.08292026 130.56465536 273.57921601 136.2208984 281 142 C281.73793289 142.39893463 282.47586578 142.79786926 283.23616028 143.20889282 C286.04365002 144.90954167 287.9431268 146.42608462 290 149 C291.26475447 154.25803287 291.05138042 159.41611215 290.87890625 164.77734375 C290.86210044 166.31429809 290.84929857 167.85130095 290.84031677 169.38832092 C290.80610382 173.41573398 290.71784248 177.44018192 290.61798096 181.46643066 C290.52557667 185.58203011 290.48473799 189.69811328 290.43945312 193.81445312 C290.34319875 201.87765639 290.18979303 209.93845844 290 218 C286.82845076 216.45751161 284.09501383 214.71900087 281.25 212.625 C280.27933594 211.91085937 279.30867188 211.19671875 278.30859375 210.4609375 C272.54151791 206.17902835 266.79846637 201.86514043 261.05859375 197.546875 C259.09325466 196.07007371 257.12535515 194.59677469 255.15625 193.125 C247.57415978 187.45560499 240.02635538 181.74320896 232.5 176 C220.51226248 166.85489339 208.4633584 157.80225917 196.3125 148.875 C189.43290007 143.81831667 182.63181665 138.67958956 175.88085938 133.45214844 C164.40945071 124.59545857 152.85706861 115.85389129 141.16552734 107.29003906 C134.32479153 102.26772669 127.58055475 97.12423916 120.8425293 91.96533203 C115.04619316 87.53576842 109.20053718 83.18173753 103.3125 78.875 C97.10272157 74.33231071 90.98839111 69.68966006 84.9375 64.9375 C78.32991529 59.74855386 71.59732982 54.7798726 64.75854492 49.90087891 C58.53143427 45.43677193 52.49476222 40.75495644 46.47094727 36.02172852 C41.49588522 32.12600197 36.43623749 28.39720608 31.26782227 24.76367188 C24.31837195 19.85557866 17.60033163 14.64312159 10.86914062 9.44189453 C9.22437484 8.17308749 7.57359012 6.91209094 5.921875 5.65234375 C5.10203125 5.02457031 4.2821875 4.39679687 3.4375 3.75 C2.75558594 3.22921875 2.07367187 2.7084375 1.37109375 2.171875 C0.91863281 1.78515625 0.46617187 1.3984375 0 1 C0 0.67 0 0.34 0 0 Z " fill="#CF2229" transform="translate(734,637)"/>
<path d="M0 0 C9.24 0 18.48 0 28 0 C28.495 2.413125 28.99 4.82625 29.5 7.3125 C29.65662109 8.06829346 29.81324219 8.82408691 29.97460938 9.6027832 C30.55292952 12.45881266 31 15.07851544 31 18 C31.65226563 17.855625 32.30453125 17.71125 32.9765625 17.5625 C33.85054687 17.376875 34.72453125 17.19125 35.625 17 C36.48351562 16.814375 37.34203125 16.62875 38.2265625 16.4375 C41 16 41 16 47 16 C47 131.17 47 246.34 47 365 C31.49 365 15.98 365 0 365 C0 244.55 0 124.1 0 0 Z " fill="#FCFCFC" transform="translate(579,659)"/>
<path d="M0 0 C1.34807739 0.01273453 1.34807739 0.01273453 2.72338867 0.02572632 C5.56686216 0.05905698 8.40739796 0.13429281 11.25 0.2109375 C13.18876085 0.24106361 15.12756658 0.26843476 17.06640625 0.29296875 C21.79538613 0.35878094 26.52219674 0.4621564 31.25 0.5859375 C28.89610394 6.74162972 25.78015379 12.49253898 22.75 18.3359375 C22.15574219 19.49738281 21.56148438 20.65882813 20.94921875 21.85546875 C20.09263672 23.50869141 20.09263672 23.50869141 19.21875 25.1953125 C18.43661133 26.7107666 18.43661133 26.7107666 17.63867188 28.25683594 C16.25 30.5859375 16.25 30.5859375 14.25 31.5859375 C14.25 27.9559375 14.25 24.3259375 14.25 20.5859375 C3.91578983 28.30530041 -6.36463238 36.09067437 -16.60009766 43.94042969 C-18.75485009 45.5896497 -20.91385308 47.2331416 -23.07421875 48.875 C-29.99106903 54.13685032 -36.86011444 59.44213233 -43.625 64.8984375 C-48.49312212 68.82213891 -53.43053506 72.58575846 -58.515625 76.2265625 C-65.76851786 81.46950335 -72.81957062 86.99571518 -79.92871094 92.43066406 C-83.63395585 95.2612198 -87.34420661 98.08517236 -91.05444336 100.90917969 C-97.56982235 105.8684447 -104.08150268 110.83180462 -110.5625 115.8359375 C-115.94489371 119.98588142 -121.37839198 124.06418776 -126.82080078 128.13476562 C-131.94520479 131.97163709 -137.02707587 135.86056045 -142.09375 139.7734375 C-146.69061101 143.31750268 -151.31673555 146.82314133 -155.9375 150.3359375 C-162.59527149 155.3990012 -169.22312868 160.49670717 -175.8125 165.6484375 C-182.8954873 171.18391441 -190.06704312 176.59174167 -197.27172852 181.9675293 C-203.75095102 186.81166053 -210.14740766 191.75445046 -216.52124023 196.73608398 C-221.52507015 200.64391643 -226.57309997 204.47962433 -231.6640625 208.2734375 C-235.35723738 211.04098121 -239.02366035 213.84223584 -242.6875 216.6484375 C-249.11855087 221.57360693 -255.55593994 226.49029835 -262 231.3984375 C-262.87519287 232.06512451 -263.75038574 232.73181152 -264.65209961 233.41870117 C-269.1998216 236.88270363 -273.74818648 240.3458606 -278.296875 243.80859375 C-286.72115943 250.22274198 -295.13930523 256.64397327 -303.52734375 263.10546875 C-312.9542735 270.36494693 -322.40249821 277.59384726 -331.9375 284.7109375 C-337.38465155 288.77946451 -342.76119097 292.92367083 -348.09033203 297.14526367 C-354.51257148 302.21798089 -361.03575387 307.15801836 -367.55541992 312.10449219 C-368.41498291 312.75708008 -369.2745459 313.40966797 -370.16015625 314.08203125 C-371.36889404 314.99831299 -371.36889404 314.99831299 -372.60205078 315.93310547 C-374.34401738 317.27353669 -376.05085951 318.65952821 -377.74609375 320.05859375 C-379.75 321.5859375 -379.75 321.5859375 -381.75 321.5859375 C-381.99856328 316.32098478 -382.1792505 311.0594914 -382.29931641 305.79003906 C-382.3493882 304.00102219 -382.41747426 302.21241019 -382.50439453 300.42480469 C-383.20425424 285.65364796 -383.20425424 285.65364796 -379.81347656 280.83251953 C-377.23586417 278.75708503 -374.64632446 277.18010525 -371.75 275.5859375 C-370.15911804 274.4199575 -368.5855051 273.22999968 -367.03125 272.015625 C-365.43837635 270.82955134 -363.84460173 269.64468685 -362.25 268.4609375 C-355.61110016 263.50914466 -349.02348075 258.50132811 -342.5 253.3984375 C-336.29212205 248.543602 -330.03436034 243.76634186 -323.71777344 239.05395508 C-318.86773001 235.43323792 -314.05227332 231.76973847 -309.25 228.0859375 C-303.69154797 223.82291165 -298.11038785 219.59287998 -292.5 215.3984375 C-285.53466233 210.18948779 -278.63165063 204.90475405 -271.75 199.5859375 C-256.99838006 188.20555963 -242.19546453 176.89203273 -227.27490234 165.73388672 C-222.28814872 162.0004815 -217.34578341 158.21211899 -212.4140625 154.40625 C-198.17297406 143.42857604 -183.82332233 132.59365951 -169.41162109 121.84130859 C-159.52664925 114.46531235 -149.69727565 107.03119841 -139.97924805 99.4362793 C-134.98191703 95.5332787 -129.94086745 91.70180774 -124.85546875 87.9140625 C-121.04946945 85.06075988 -117.27466956 82.16798523 -113.5 79.2734375 C-108.02293966 75.07555302 -102.52723613 70.90502724 -97 66.7734375 C-87.19913642 59.44446774 -77.47775726 52.01149371 -67.75 44.5859375 C-57.29464603 36.60497987 -46.83674334 28.62974601 -36.30151367 20.75439453 C-31.10157108 16.86264309 -25.94885162 12.9127083 -20.8125 8.9375 C-19.2965625 7.77347656 -19.2965625 7.77347656 -17.75 6.5859375 C-17.18692139 6.08382751 -16.62384277 5.58171753 -16.04370117 5.06439209 C-10.71856531 0.55382943 -6.86578074 -0.24852006 0 0 Z " fill="#FBFAFA" transform="translate(381.75,658.4140625)"/>
<path d="M0 0 C15.51 0 31.02 0 47 0 C47 89.1 47 178.2 47 270 C31.49 270 15.98 270 0 270 C0 180.9 0 91.8 0 0 Z " fill="#FCFCFC" transform="translate(397,0)"/>
<path d="M0 0 C1.03221317 5.69403864 1.86872767 11.40135724 0 17 C-3.71511082 21.73633858 -9.43420759 24.49451854 -14.54931641 27.48583984 C-18.63259253 30.00870083 -22.32093274 33.00307998 -26.0625 36 C-27.57675572 37.19184591 -29.09237288 38.38196422 -30.609375 39.5703125 C-31.71442383 40.4370459 -31.71442383 40.4370459 -32.84179688 41.32128906 C-36.13370012 43.88182376 -39.46915771 46.38220535 -42.8125 48.875 C-49.07213612 53.5438983 -55.29321829 58.26105715 -61.5 63 C-67.73033232 67.75586332 -73.97209747 72.49459301 -80.25 77.1875 C-85.58621504 81.17776952 -90.89734223 85.19885611 -96.1875 89.25 C-96.88407715 89.78334961 -97.5806543 90.31669922 -98.29833984 90.86621094 C-101.36244727 93.21298039 -104.42613949 95.56029162 -107.48974609 97.90771484 C-116.8311776 105.06071351 -126.19318058 112.17576187 -135.6875 119.125 C-144.24742171 125.39259464 -152.62656064 131.87396939 -160.9765625 138.41748047 C-168.73654876 144.48652378 -176.5777377 150.4462566 -184.46875 156.34375 C-189.00058755 159.74262816 -193.49740909 163.18754252 -198 166.625 C-205.88928603 172.64647709 -213.8126514 178.62006705 -221.75976562 184.56494141 C-227.7233857 189.03059614 -233.64857558 193.54383078 -239.55859375 198.08007812 C-245.94307898 202.97325301 -252.38132286 207.79333587 -258.82226562 212.61181641 C-264.61602352 216.95036115 -270.36642404 221.33996403 -276.09375 225.765625 C-278.8799059 227.90766959 -281.68471078 230.0214412 -284.5 232.125 C-290.11087681 236.31831402 -295.68167485 240.56288398 -301.25 244.8125 C-307.77659742 249.7909955 -314.310323 254.75928752 -320.875 259.6875 C-321.49793945 260.15583252 -322.12087891 260.62416504 -322.76269531 261.10668945 C-323.90154618 261.95989666 -325.04536963 262.80653681 -326.19569397 263.64421082 C-327.985266 264.95480374 -327.985266 264.95480374 -329.52067566 266.32568359 C-334.49431897 270.43401292 -338.57274318 270.67244565 -344.87109375 270.48828125 C-345.793423 270.48120651 -346.71575226 270.47413177 -347.66603088 270.46684265 C-350.59070475 270.43901755 -353.51341206 270.37630266 -356.4375 270.3125 C-358.42900867 270.28740171 -360.42054756 270.26459123 -362.41210938 270.24414062 C-367.27548882 270.18922996 -372.13741185 270.10304109 -377 270 C-374.01291314 266.92997492 -371.03848594 264.12713069 -367.59375 261.58203125 C-366.77422852 260.97270752 -365.95470703 260.36338379 -365.11035156 259.7355957 C-364.24893555 259.10097412 -363.38751953 258.46635254 -362.5 257.8125 C-360.69224292 256.4693762 -358.88495094 255.12562616 -357.078125 253.78125 C-356.20349609 253.1315625 -355.32886719 252.481875 -354.42773438 251.8125 C-351.34366723 249.50999452 -348.29379376 247.16799869 -345.25 244.8125 C-340.69589739 241.29289532 -336.10981048 237.82095873 -331.5 234.375 C-325.22217619 229.68191409 -318.97957557 224.94442223 -312.75 220.1875 C-304.85398851 214.15871053 -296.92167898 208.18080881 -288.96679688 202.22998047 C-284.37032056 198.78811703 -279.79273781 195.32497027 -275.25 191.8125 C-267.89284434 186.12869995 -260.44555522 180.56720799 -253 175 C-243.10704037 167.60094802 -233.22170275 160.1983463 -223.44921875 152.640625 C-219.10450329 149.29833564 -214.70403505 146.03033856 -210.3125 142.75 C-203.73860674 137.83693851 -197.21533711 132.86756305 -190.75 127.8125 C-183.2264374 121.93063609 -175.62068197 116.16967964 -167.96337891 110.46337891 C-164.65965924 108.00099446 -161.36029378 105.53281353 -158.0625 103.0625 C-157.40781738 102.57209229 -156.75313477 102.08168457 -156.07861328 101.57641602 C-150.38648382 97.30488282 -144.73390175 92.98260066 -139.08544922 88.65356445 C-133.08836635 84.05977403 -127.05355103 79.51920222 -121 75 C-114.34144861 70.02816388 -107.71362918 65.02122177 -101.13696289 59.94165039 C-96.11138783 56.06834191 -91.03288835 52.26743822 -85.95117188 48.46826172 C-81.69296757 45.28075604 -77.45961044 42.06387686 -73.25 38.8125 C-69.35484873 35.80400196 -65.44278239 32.82094899 -61.5 29.875 C-56.73980847 26.31751644 -52.00546319 22.72766156 -47.28344727 19.11962891 C-45.42723209 17.7060985 -43.56571178 16.29950777 -41.69897461 14.89990234 C-36.03911964 10.65750425 -36.03911964 10.65750425 -30.75390625 5.96875 C-21.77563837 -2.26675842 -11.48642575 -0.8968979 0 0 Z " fill="#FBFAFA" transform="translate(1024,0)"/>
<path d="M0 0 C15.84 0 31.68 0 48 0 C48 76.89 48 153.78 48 233 C38.76 233.33 29.52 233.66 20 234 C17.03 234.33 14.06 234.66 11 235 C7.37 235 3.74 235 0 235 C0 157.45 0 79.9 0 0 Z " fill="#FCFAFB" transform="translate(578,0)"/>
<path d="M0 0 C0.33 0 0.66 0 1 0 C1 83.16 1 166.32 1 252 C-14.51 252 -30.02 252 -46 252 C-46 185.67 -46 119.34 -46 51 C-39.4 49.68 -32.8 48.36 -26 47 C-18.51306638 44.95152525 -18.51306638 44.95152525 -16.39930725 42.05821228 C-16.11808517 41.32478104 -15.8368631 40.59134979 -15.54711914 39.83569336 C-15.2105983 39.00150375 -14.87407745 38.16731415 -14.52735901 37.30784607 C-14.1999321 36.4109053 -13.87250519 35.51396454 -13.53515625 34.58984375 C-13.17151474 33.66659805 -12.80787323 32.74335236 -12.43321228 31.79212952 C-11.28169499 28.85055127 -10.17174433 25.89524433 -9.0625 22.9375 C-8.29113474 20.94360578 -7.51707445 18.95075194 -6.74023438 16.95898438 C-5.03881844 12.58692893 -3.36388636 8.20573175 -1.71180725 3.81480408 C-1 2 -1 2 0 0 Z " fill="#FCFCFC" transform="translate(443,772)"/>
<path d="M0 0 C4.47459085 1.78983634 6.93894287 3.31282519 10.625 6.25 C11.77980429 7.15809151 12.93614893 8.06422643 14.09375 8.96875 C15.03154297 9.70158203 15.03154297 9.70158203 15.98828125 10.44921875 C19.65579901 13.27641205 23.39196314 16.01025434 27.125 18.75 C27.9308252 19.34200195 28.73665039 19.93400391 29.56689453 20.54394531 C31.2204157 21.758204 32.87422626 22.9720687 34.52832031 24.18554688 C38.52303737 27.11805746 42.51126088 30.05936661 46.5 33 C48.08330059 34.16671111 49.66663396 35.33337772 51.25 36.5 C60.75 43.5 70.25 50.5 79.75 57.5 C80.5339917 58.07766113 81.3179834 58.65532227 82.12573242 59.25048828 C83.70668983 60.41543849 85.28758192 61.58047734 86.8684082 62.74560547 C90.86255828 65.6892698 94.8578843 68.63131346 98.85546875 71.5703125 C106.93745867 77.51470122 114.99424765 83.48844044 123.00585938 89.52734375 C128.01904536 93.29349346 133.09430015 96.96802789 138.1875 100.625 C153.56109259 111.67595642 153.56109259 111.67595642 160 117 C160 117.33 160 117.66 160 118 C107.2 118 54.4 118 0 118 C0 79.06 0 40.12 0 0 Z " fill="#292E6E" transform="translate(0,209)"/>
<path d="M0 0 C52.47 0 104.94 0 159 0 C159 38.94 159 77.88 159 118 C152.91988206 113.94658804 146.9785751 109.85406352 141.125 105.5 C139.45056212 104.2603609 137.77608175 103.02077919 136.1015625 101.78125 C135.2549707 101.15347656 134.40837891 100.52570313 133.53613281 99.87890625 C129.53014237 96.91104887 125.51476638 93.9559681 121.5 91 C119.92054032 89.83598173 118.34111332 88.67191911 116.76171875 87.5078125 C113.55736102 85.14656803 110.35147783 82.78741454 107.14453125 80.4296875 C99.08482392 74.50190275 91.04675097 68.54832033 83.05126953 62.53417969 C75.5479322 56.89690914 67.98469459 51.34128721 60.42333984 45.78222656 C57.2367535 43.43867626 54.05234918 41.09217267 50.86816406 38.74536133 C49.28823331 37.58093608 47.70815495 36.41671109 46.12792969 35.25268555 C42.15493656 32.32605558 38.18346582 29.39739887 34.21484375 26.46484375 C26.14658578 20.5055687 18.06182749 14.57018298 9.9375 8.6875 C9.16913818 8.1298999 8.40077637 7.5722998 7.60913086 6.99780273 C6.90151611 6.48677002 6.19390137 5.9757373 5.46484375 5.44921875 C4.842146 4.99893311 4.21944824 4.54864746 3.57788086 4.0847168 C1.97832684 2.93159529 1.97832684 2.93159529 0 2 C0 1.34 0 0.68 0 0 Z " fill="#292F6F" transform="translate(865,637)"/>
<path d="M0 0 C51.81 0 103.62 0 157 0 C154.27668184 2.72331816 151.93056933 4.92437978 148.90234375 7.1796875 C148.11093994 7.77128662 147.31953613 8.36288574 146.50415039 8.97241211 C145.65715576 9.60026611 144.81016113 10.22812012 143.9375 10.875 C143.0498999 11.53701416 142.1622998 12.19902832 141.24780273 12.88110352 C134.59384801 17.8372298 127.90737088 22.74887796 121.21850586 27.65771484 C114.36168695 32.70341847 107.59637367 37.86474049 100.83618164 43.03881836 C95.10118396 47.42054901 89.32244018 51.73528323 83.5 56 C75.8092962 61.63442192 68.21030084 67.3811734 60.63598633 73.17089844 C53.4251993 78.68231094 46.17580407 84.13969742 38.90625 89.57324219 C36.97694854 91.01725317 35.05055634 92.46506202 33.125 93.9140625 C25.64913925 99.53790855 18.14895679 105.12813587 10.625 110.6875 C9.79766357 111.30028809 8.97032715 111.91307617 8.11791992 112.54443359 C7.34939697 113.1111377 6.58087402 113.6778418 5.7890625 114.26171875 C4.76353271 115.01908325 4.76353271 115.01908325 3.71728516 115.79174805 C2 117 2 117 0 118 C0 79.06 0 40.12 0 0 Z " fill="#292F6F" transform="translate(0,637)"/>
<path d="M0 0 C0 38.28 0 76.56 0 116 C-50.82 116 -101.64 116 -154 116 C-151.33669079 113.33669079 -149.16100546 111.25646871 -146.19140625 109.109375 C-145.08696167 108.3047583 -145.08696167 108.3047583 -143.96020508 107.48388672 C-143.1689624 106.9117041 -142.37771973 106.33952148 -141.5625 105.75 C-134.41770223 100.5365466 -127.33764871 95.24861347 -120.3125 89.875 C-112.20995686 83.6807664 -104.07544702 77.53273038 -95.90625 71.42675781 C-93.97694854 69.98274683 -92.05055634 68.53493798 -90.125 67.0859375 C-82.96792899 61.70254441 -75.78189038 56.36207271 -68.5625 51.0625 C-61.71798352 46.03517294 -54.93996627 40.9300523 -48.20556641 35.75634766 C-40.85096331 30.10755851 -33.42781361 24.55195763 -26 19 C-23.18671646 16.89687836 -20.37416525 14.79278467 -17.5625 12.6875 C-16.89524902 12.18822998 -16.22799805 11.68895996 -15.54052734 11.17456055 C-11.14647869 7.87985063 -6.79910938 4.53249704 -2.50390625 1.109375 C-1 0 -1 0 0 0 Z " fill="#2A2F6F" transform="translate(1024,211)"/>
<path d="M0 0 C21.12 0 42.24 0 64 0 C64 117.81 64 235.62 64 357 C62.02 357 60.04 357 58 357 C52.93690065 342.77510182 50.84320402 329.15187499 50.87974548 314.11730957 C50.87889106 312.82823873 50.87803663 311.53916789 50.87715632 310.2110343 C50.87492867 306.64900357 50.87890888 303.08700312 50.88393438 299.52497625 C50.8882636 295.67777352 50.8867907 291.83057241 50.8860321 287.98336792 C50.88550844 281.32312111 50.88863884 274.66288411 50.89426994 268.00263977 C50.90240621 258.37311298 50.90500235 248.74359092 50.90625793 239.11406106 C50.90844511 223.489775 50.91509614 207.86549416 50.92456055 192.24121094 C50.93374331 177.06608099 50.94081992 161.89095247 50.94506836 146.71582031 C50.94533108 145.78000549 50.94559381 144.84419067 50.94586449 143.88001782 C50.94716955 139.18518453 50.94843326 134.49035123 50.94967639 129.79551792 C50.96003859 90.86367477 50.97792355 51.93183814 51 13 C34.5 13 18 13 1 13 C0.67 8.71 0.34 4.42 0 0 Z " fill="#FAFBFB" transform="translate(646,287)"/>
<path d="M0 0 C71.28 0 142.56 0 216 0 C215 11 215 11 214 14 C148.33 14 82.66 14 15 14 C15 36.44 15 58.88 15 82 C10.05 82 5.1 82 0 82 C0 54.94 0 27.88 0 0 Z " fill="#F4F4F7" transform="translate(342,286)"/>
<path d="M0 0 C0.33 0 0.66 0 1 0 C2.42697834 9.80668096 3.1651095 19.56246322 3.64904785 29.45663452 C4.62810248 49.27361173 6.77822866 68.9485703 8.96777344 88.6640625 C9.10059723 89.87335922 9.23342102 91.08265594 9.37026978 92.32859802 C9.62103849 94.60568811 9.87610424 96.88231082 10.13632202 99.15834045 C10.79667427 105.15007373 11.12511904 110.97185931 11 117 C6.16908083 114.30725551 1.56604654 111.42876366 -3 108.3125 C-10.49713827 103.2483845 -18.20025238 98.58027733 -26 94 C-24.09354479 86.00911325 -21.95105812 78.24454437 -19.08666992 70.54492188 C-16.69685534 64.11816996 -14.6010733 57.66381115 -12.75 51.0625 C-12.45915527 50.02996094 -12.16831055 48.99742187 -11.86865234 47.93359375 C-8.66870126 36.26417933 -6.11304878 24.44970675 -3.57714844 12.62133789 C-3.41240021 11.85765396 -3.24765198 11.09397003 -3.07791138 10.30714417 C-2.76647274 8.86001895 -2.45844634 7.41215406 -2.15426636 5.96348572 C-1.11123269 1.11123269 -1.11123269 1.11123269 0 0 Z " fill="#262D65" transform="translate(578,338)"/>
<path d="M0 0 C0 46.53 0 93.06 0 141 C-10.46118138 136.81552745 -10.46118138 136.81552745 -14 133 C-15.30005805 128.76855053 -15.1399549 124.69029752 -15.02172852 120.29345703 C-15.02304276 119.01486313 -15.02435699 117.73626923 -15.02571106 116.41893005 C-15.02828702 112.92444668 -14.97549343 109.43276004 -14.91254544 105.93892527 C-14.85616887 102.28355619 -14.85098815 98.62811833 -14.84031677 94.97238159 C-14.81237606 88.05522642 -14.73856876 81.13935596 -14.64817137 74.2227658 C-14.54747 66.34629588 -14.49806493 58.46976362 -14.45291245 50.59280992 C-14.35891335 34.39445528 -14.20067822 18.19739174 -14 2 C-8.86048829 0.58220367 -5.49046024 0 0 0 Z " fill="#F4F5F7" transform="translate(356,406)"/>
<path d="M0 0 C4 1 4 1 13 5 C13 22.16 13 39.32 13 57 C36.43 57 59.86 57 84 57 C83 61 83 61 79 69 C39.895 69.495 39.895 69.495 0 70 C0 46.9 0 23.8 0 0 Z " fill="#FAFAFB" transform="translate(342,576)"/>
<path d="M0 0 C0.98974319 0.01797638 1.97948639 0.03595276 2.9992218 0.05447388 C4.04329193 0.05374374 5.08736206 0.05301361 6.16307068 0.05226135 C9.62110481 0.05575046 13.07779935 0.09467615 16.53559875 0.13381958 C18.93027002 0.14314294 21.32495081 0.1502613 23.71963501 0.15525818 C30.02786 0.1743652 36.33551099 0.22349893 42.64350891 0.27877808 C49.07816298 0.32989014 55.51290965 0.35275508 61.94770813 0.37796021 C74.57751787 0.43161325 87.20690124 0.51697159 99.83638 0.62210083 C100.82638 6.56210083 100.82638 6.56210083 101.83638 12.62210083 C64.54638 12.62210083 27.25638 12.62210083 -11.16362 12.62210083 C-9.37063596 0.07121258 -9.37063596 0.07121258 0 0 Z " fill="#F8F8FA" transform="translate(503.1636199951172,632.3778991699219)"/>
<path d="M0 0 C122.43 0 244.86 0 371 0 C371 0.33 371 0.66 371 1 C324.29743439 1.1274419 277.59486867 1.25484096 230.89230279 1.38218227 C225.38336137 1.39720323 219.87441994 1.41222455 214.36547852 1.42724609 C212.72032548 1.43173202 212.72032548 1.43173202 211.04193703 1.43630856 C193.26424918 1.48478473 175.4865614 1.53328977 157.70887365 1.58180541 C139.47836919 1.63155615 121.24786465 1.68127603 103.01736003 1.73096704 C91.76081415 1.76165007 80.50426833 1.7923574 69.2477226 1.82309544 C61.53721206 1.84414809 53.82670144 1.86517087 46.11619075 1.88616979 C41.66225799 1.89830059 37.20832526 1.91044492 32.75439262 1.92262459 C28.68145494 1.9337621 24.60851717 1.94486234 20.5355793 1.9559322 C19.05774293 1.95995553 17.57990659 1.96399286 16.10207029 1.96804518 C14.1016198 1.97352854 12.10116915 1.97895716 10.1007185 1.98438263 C8.43013891 1.98893927 8.43013891 1.98893927 6.72581023 1.99358797 C4.8172109 1.99807764 2.90860461 2 1 2 C0.67 1.34 0.34 0.68 0 0 Z " fill="#404684" transform="translate(24,0)"/>
<path d="M0 0 C30.36 0 60.72 0 92 0 C92 0.33 92 0.66 92 1 C80.57803922 1.13058408 69.15607638 1.26098527 57.73411083 1.39115143 C52.43073105 1.45159519 47.12735202 1.51210252 41.82397461 1.57275391 C36.70820087 1.63125747 31.59242528 1.68959564 26.47664833 1.74781799 C24.52257533 1.77008647 22.56850301 1.79241506 20.61443138 1.81480408 C17.88252309 1.8460951 15.15061246 1.87717452 12.41870117 1.90820312 C11.60662201 1.91755386 10.79454285 1.9269046 9.95785522 1.9365387 C6.97171286 1.97028418 3.98636138 2 1 2 C0.67 1.34 0.34 0.68 0 0 Z " fill="#C1272E" transform="translate(734,637)"/>
<path d="M0 0 C0 0.99 0 1.98 0 3 C-0.66 3.66 -1.32 4.32 -2 5 C-2.24515697 7.50375468 -2.37333658 9.90549479 -2.4140625 12.4140625 C-2.43342865 13.14370209 -2.4527948 13.87334167 -2.4727478 14.62509155 C-2.53258422 16.95827502 -2.57894423 19.29150773 -2.625 21.625 C-2.66317614 23.20575082 -2.70222765 24.78648076 -2.7421875 26.3671875 C-2.83828878 30.2446223 -2.92230412 34.12215449 -3 38 C-3.33 38 -3.66 38 -4 38 C-4.09885708 33.07045354 -4.17146125 28.14148353 -4.21972656 23.21118164 C-4.23984565 21.53399608 -4.26714451 19.85688069 -4.30175781 18.17993164 C-4.35026569 15.769518 -4.37296464 13.36003128 -4.390625 10.94921875 C-4.41127014 10.19912033 -4.43191528 9.44902191 -4.45318604 8.67619324 C-4.45410156 6.5534668 -4.45410156 6.5534668 -4 3 C-1.97558594 1.00317383 -1.97558594 1.00317383 0 0 Z " fill="#CC2E36" transform="translate(4,863)"/>
<path d="M0 0 C12.87 0 25.74 0 39 0 C39 0.33 39 0.66 39 1 C34.07040958 1.14296383 29.14080336 1.28536564 24.21118164 1.42724609 C22.53409384 1.47559399 20.85701046 1.5240956 19.17993164 1.57275391 C16.76970548 1.64265688 14.35946396 1.7120075 11.94921875 1.78125 C11.19912033 1.80312378 10.44902191 1.82499756 9.67619324 1.84753418 C6.78283704 1.93022824 3.89472012 2 1 2 C0.67 1.34 0.34 0.68 0 0 Z " fill="#C23036" transform="translate(734,637)"/>
<path d="M0 0 C-1.61010527 4.07376031 -4.53822271 6.76507069 -7.625 9.75 C-8.140625 10.25660156 -8.65625 10.76320313 -9.1875 11.28515625 C-10.45383339 12.52803902 -11.7263144 13.76465276 -13 15 C-13.66 14.67 -14.32 14.34 -15 14 C-2.98984772 0 -2.98984772 0 0 0 Z " fill="#3D2654" transform="translate(255,395)"/>
<path d="M0 0 C-2.64 0.33 -5.28 0.66 -8 1 C-8.66 3.64 -9.32 6.28 -10 9 C-10.66 9 -11.32 9 -12 9 C-12.09765625 2.84765625 -12.09765625 2.84765625 -12 1 C-9.19301445 -1.80698555 -3.49996404 -1.25998705 0 0 Z " fill="#58264C" transform="translate(576,237)"/>
<path d="M0 0 C0.33 0.99 0.66 1.98 1 3 C-0.81725675 5.82684384 -2.03937946 7.65310925 -5.25 8.8125 C-5.8275 8.874375 -6.405 8.93625 -7 9 C-6.34 8.01 -5.68 7.02 -5 6 C-4.34 6 -3.68 6 -3 6 C-2.690625 5.38125 -2.38125 4.7625 -2.0625 4.125 C-1.375 2.75 -0.6875 1.375 0 0 Z " fill="#393F71" transform="translate(459,561)"/>
<path d="M0 0 C0.66 0 1.32 0 2 0 C1.67 2.97 1.34 5.94 1 9 C0.34 8.67 -0.32 8.34 -1 8 C-0.67 5.36 -0.34 2.72 0 0 Z " fill="#454E7D" transform="translate(279,445)"/>
<path d="M0 0 C0 0.99 0 1.98 0 3 C-2.3125 5.25 -2.3125 5.25 -5 7 C-5.99 6.67 -6.98 6.34 -8 6 C-5.36 4.02 -2.72 2.04 0 0 Z " fill="#353B6F" transform="translate(237,799)"/>
</svg>
